<?xml version="1.0" encoding="utf-8"?>
<!-- Generator: Adobe Illustrator 16.0.0, SVG Export Plug-In . SVG Version: 6.00 Build 0)  -->
<!DOCTYPE svg PUBLIC "-//W3C//DTD SVG 1.1//EN" "http://www.w3.org/Graphics/SVG/1.1/DTD/svg11.dtd">
<svg version="1.1" xmlns="http://www.w3.org/2000/svg" xmlns:xlink="http://www.w3.org/1999/xlink" x="0px" y="0px" width="16px"
	 height="16px" viewBox="0 0 16 16" enable-background="new 0 0 16 16" xml:space="preserve">
<g id="图层_1" display="none">
	<g display="inline">
		<g>
			<path fill="#E71F19" d="M8,0C3.582,0,0,3.582,0,8c0,4.42,3.582,8,8,8c4.419,0,8-3.58,8-8C16,3.582,12.419,0,8,0z M8,15.04
				c-3.888,0-7.04-3.151-7.04-7.04c0-3.888,3.152-7.04,7.04-7.04c3.888,0,7.04,3.152,7.04,7.04C15.04,11.889,11.888,15.04,8,15.04z
				 M6.56,9.28L5,8L4,9l2.607,2.5L12,5.5l-0.8-0.54L6.56,9.28z"/>
		</g>
	</g>
</g>
<g id="图层_2">
	<g>
		<g>
			<path fill="#E71F19" d="M7.52,10.081h0.96V4H7.52V10.081z M8,0C3.582,0,0,3.582,0,8c0,4.418,3.582,8,8,8c4.418,0,8-3.582,8-8
				C16,3.582,12.418,0,8,0z M8,15.04c-3.888,0-7.04-3.152-7.04-7.04c0-3.888,3.152-7.04,7.04-7.04c3.888,0,7.04,3.152,7.04,7.04
				C15.04,11.888,11.888,15.04,8,15.04z M7.52,12h0.96v-0.96H7.52V12z"/>
		</g>
	</g>
</g>
</svg>
