<?xml version="1.0" encoding="utf-8"?>
<!-- Generator: Adobe Illustrator 17.0.0, SVG Export Plug-In . SVG Version: 6.00 Build 0)  -->
<!DOCTYPE svg PUBLIC "-//W3C//DTD SVG 1.1//EN" "http://www.w3.org/Graphics/SVG/1.1/DTD/svg11.dtd">
<svg version="1.1" id="图层_1" xmlns="http://www.w3.org/2000/svg" xmlns:xlink="http://www.w3.org/1999/xlink" x="0px" y="0px"
	 width="16px" height="16px" viewBox="0 0 16 16" enable-background="new 0 0 16 16" xml:space="preserve">
<g id="图层_4">
	<path fill="#727171" d="M12.569,3.852c-0.951-1.397-2.492-2.226-4.578-2.226c-3.685,0-6.333,2.556-6.333,6.333
		c0,3.778,2.648,6.333,6.333,6.333c3.256,0,5.205-1.997,5.616-5.067h1.502c-0.589,3.593-3.63,6.333-7.304,6.333
		c-4.095,0-7.415-3.403-7.415-7.6s3.505-7.6,7.6-7.6c2.314,0,4.308,1.098,5.616,2.8l1.351-0.9v4.433l-3.8-1.9L12.569,3.852z"/>
</g>
</svg>
