<?xml version="1.0" encoding="utf-8"?>
<!-- Generator: Adobe Illustrator 16.0.0, SVG Export Plug-In . SVG Version: 6.00 Build 0)  -->
<!DOCTYPE svg PUBLIC "-//W3C//DTD SVG 1.1//EN" "http://www.w3.org/Graphics/SVG/1.1/DTD/svg11.dtd">
<svg version="1.1" xmlns="http://www.w3.org/2000/svg" xmlns:xlink="http://www.w3.org/1999/xlink" x="0px" y="0px" width="16px"
	 height="16px" viewBox="0 0 16 16" enable-background="new 0 0 16 16" xml:space="preserve">
<g id="图层_1" display="none">
	<g display="inline">
		<g>
			<path fill="#E71F19" d="M8,0C3.582,0,0,3.582,0,8c0,4.42,3.582,8,8,8c4.419,0,8-3.58,8-8C16,3.582,12.419,0,8,0z M8,15.04
				c-3.888,0-7.04-3.151-7.04-7.04c0-3.888,3.152-7.04,7.04-7.04c3.888,0,7.04,3.152,7.04,7.04C15.04,11.889,11.888,15.04,8,15.04z
				 M6.56,9.28L5,8L4,9l2.607,2.5L12,5.5l-0.8-0.54L6.56,9.28z"/>
		</g>
	</g>
</g>
<g id="图层_2" display="none">
	<g display="inline">
		<g>
			<path fill="#E71F19" d="M7.52,10.081h0.96V4H7.52V10.081z M8,0C3.582,0,0,3.582,0,8c0,4.418,3.582,8,8,8c4.418,0,8-3.582,8-8
				C16,3.582,12.418,0,8,0z M8,15.04c-3.888,0-7.04-3.152-7.04-7.04c0-3.888,3.152-7.04,7.04-7.04c3.888,0,7.04,3.152,7.04,7.04
				C15.04,11.888,11.888,15.04,8,15.04z M7.52,12h0.96v-0.96H7.52V12z"/>
		</g>
	</g>
</g>
<g id="图层_3" display="none">
	<path display="inline" fill-rule="evenodd" clip-rule="evenodd" fill="#E71F19" d="M4.218,4.8L4.8,4.218
		c0.291-0.29,0.873-0.29,1.164,0L8,6.254l2.036-2.037c0.291-0.29,0.873-0.29,1.164,0L11.781,4.8c0.291,0.291,0.291,0.873,0,1.164
		L9.745,8l2.036,2.036c0.291,0.291,0.291,0.873,0,1.163L11.2,11.781c-0.291,0.291-0.873,0.291-1.164,0L8,9.745l-2.036,2.036
		c-0.291,0.291-0.873,0.291-1.164,0l-0.582-0.582c-0.29-0.29-0.29-0.872,0-1.163L6.255,8L4.218,5.963
		C3.928,5.672,3.928,5.091,4.218,4.8z M0,8c0,4.418,3.582,8,8,8c4.418,0,8-3.582,8-8c0-4.418-3.582-8-8-8C3.582,0,0,3.582,0,8z"/>
</g>
<g id="图层_4" display="none">
	<g display="inline">
		<g>
			<path fill-rule="evenodd" clip-rule="evenodd" fill="#E71F19" d="M8,0C3.582,0,0,3.582,0,8c0,4.418,3.582,8,8,8
				c4.419,0,8-3.582,8-8C16,3.582,12.419,0,8,0z M6.5,3h3v2h-3V3z M10,12.5H6v-1h1.5v-4H6V6h3.5v5.5H10V12.5z"/>
		</g>
	</g>
</g>
<g id="图层_5" display="none">
	<path display="inline" fill-rule="evenodd" clip-rule="evenodd" fill="#E71F19" d="M3,11.487l1,1.025l2,2.049l10-11.28l-2-2.052
		L6.145,8.558L3,5.332L0,8.409L3,11.487z"/>
</g>
<g id="图层_6" display="none">
	<path display="inline" fill-rule="evenodd" clip-rule="evenodd" fill="#E71F19" d="M15.969,1.26l-1.229-1.229L8,6.771L1.261,0.031
		L0.031,1.26L6.771,8l-6.739,6.739l1.229,1.229L8,9.229l6.739,6.739l1.229-1.229L9.229,8L15.969,1.26z"/>
</g>
<g id="图层_7">
	<path fill-rule="evenodd" clip-rule="evenodd" fill="#E71F19" d="M5.289,15.756c0,0,0.625-0.669,1.493-1.598
		c1.965-2.104,5.17-5.539,5.17-5.539c0.158-0.167,0.229-0.39,0.219-0.61c0.01-0.22-0.088-0.416-0.244-0.583L5.263,0.289
		C4.967-0.029,4.512-0.056,4.216,0.261c0,0-0.163,0.625,0.435,1.265l6.114,6.486L4.65,14.497c-0.597,0.64-0.435,1.259-0.435,1.259
		C4.512,16.073,4.993,16.073,5.289,15.756z"/>
</g>
</svg>
