<?xml version="1.0" encoding="utf-8"?>
<!-- Generator: Adobe Illustrator 17.0.0, SVG Export Plug-In . SVG Version: 6.00 Build 0)  -->
<!DOCTYPE svg PUBLIC "-//W3C//DTD SVG 1.1//EN" "http://www.w3.org/Graphics/SVG/1.1/DTD/svg11.dtd">
<svg version="1.1" id="图层_1" xmlns="http://www.w3.org/2000/svg" xmlns:xlink="http://www.w3.org/1999/xlink" x="0px" y="0px"
	 width="16px" height="16px" viewBox="0 0 16 16" enable-background="new 0 0 16 16" xml:space="preserve">
<g id="图层_2">
	<g>
		<g>
			<path fill="#727171" d="M8.029,2.675c-2.925,0-5.297,2.371-5.297,5.297s2.371,5.297,5.297,5.297s5.297-2.371,5.297-5.297
				S10.954,2.675,8.029,2.675z M8.029,0.321c-4.225,0-7.65,3.425-7.65,7.65s3.425,7.651,7.65,7.651s7.651-3.425,7.651-7.651
				S12.254,0.321,8.029,0.321z M8.029,14.739c-3.738,0-6.768-3.03-6.768-6.768s3.03-6.768,6.768-6.768s6.768,3.03,6.768,6.768
				C14.796,11.709,11.766,14.739,8.029,14.739z"/>
		</g>
	</g>
</g>
</svg>
