<?xml version="1.0" encoding="utf-8"?>
<!-- Generator: Adobe Illustrator 17.0.0, SVG Export Plug-In . SVG Version: 6.00 Build 0)  -->
<!DOCTYPE svg PUBLIC "-//W3C//DTD SVG 1.1//EN" "http://www.w3.org/Graphics/SVG/1.1/DTD/svg11.dtd">
<svg version="1.1" id="图层_1" xmlns="http://www.w3.org/2000/svg" xmlns:xlink="http://www.w3.org/1999/xlink" x="0px" y="0px"
	 width="16px" height="16px" viewBox="0 0 16 16" enable-background="new 0 0 16 16" xml:space="preserve">
<path fill-rule="evenodd" clip-rule="evenodd" fill="#727171" d="M0.391,7.393c0-0.963,3.415-4.817,7.627-4.817
	s7.627,3.853,7.627,4.817c0,0.964-3.415,4.817-7.627,4.817S0.391,8.357,0.391,7.393 M8.017,3.54c-2.106,0-3.813,1.725-3.813,3.853
	c0,2.128,1.707,3.853,3.813,3.853c2.106,0,3.813-1.725,3.813-3.853C11.831,5.265,10.123,3.54,8.017,3.54z M8.017,9.32
	c-1.053,0-1.907-0.863-1.907-1.927c0-1.064,0.854-1.927,1.907-1.927c1.053,0,1.907,0.863,1.907,1.927
	C9.924,8.457,9.07,9.32,8.017,9.32z"/>
</svg>
