<?xml version="1.0" encoding="utf-8"?>
<!-- Generator: Adobe Illustrator 17.0.0, SVG Export Plug-In . SVG Version: 6.00 Build 0)  -->
<!DOCTYPE svg PUBLIC "-//W3C//DTD SVG 1.1//EN" "http://www.w3.org/Graphics/SVG/1.1/DTD/svg11.dtd">
<svg version="1.1" id="图层_1" xmlns="http://www.w3.org/2000/svg" xmlns:xlink="http://www.w3.org/1999/xlink" x="0px" y="0px"
	 width="16px" height="16px" viewBox="0 0 16 16" enable-background="new 0 0 16 16" xml:space="preserve">
<path fill="#727171" d="M7.034,1.158c2.978,0,5.962,2.589,5.962,6.089s-2.907,5.908-6.018,5.908c-3.018,0-5.982-2.493-5.982-5.993
	S3.979,1.158,7.034,1.158z M7,0C3.134,0,0,3.167,0,7.073s3.134,7.073,7,7.073s7-3.167,7-7.073C14.002,3.167,10.866,0,7,0z
	 M18.656,8.906 M15.753,15.8c-0.171,0.171-0.433,0.184-0.587,0.031l-3.492-3.492c0.196-0.176,0.466-0.432,0.61-0.626l3.5,3.5
	C15.937,15.367,15.924,15.629,15.753,15.8L15.753,15.8z"/>
</svg>