<?xml version="1.0" encoding="utf-8"?>
<!-- Generator: Adobe Illustrator 17.0.0, SVG Export Plug-In . SVG Version: 6.00 Build 0)  -->
<!DOCTYPE svg PUBLIC "-//W3C//DTD SVG 1.1//EN" "http://www.w3.org/Graphics/SVG/1.1/DTD/svg11.dtd">
<svg version="1.1" id="图层_1" xmlns="http://www.w3.org/2000/svg" xmlns:xlink="http://www.w3.org/1999/xlink" x="0px" y="0px"
	 width="16px" height="16px" viewBox="0 0 16 16" enable-background="new 0 0 16 16" xml:space="preserve">
<path fill="#717071" d="M8,0C3.582,0,0,3.582,0,8s3.582,8,8,8s8-3.582,8-8S12.418,0,8,0z M8,15.04c-3.888,0-7.04-3.152-7.04-7.04
	S4.112,0.96,8,0.96S15.04,4.112,15.04,8S11.888,15.04,8,15.04z M8.48,11.52C8.48,11.785,8.265,12,8,12s-0.48-0.215-0.48-0.48
	S7.735,11.04,8,11.04S8.48,11.255,8.48,11.52z M8.921,8.291c0.649-0.801,1.573-1.267,1.445-2.813S8.681,3.59,7.968,3.626
	S6.074,4.033,5.625,5.83C5.577,6.066,5.722,6.337,6.002,6.363c0.506,0.047,0.512-0.6,0.785-1.13C7.131,4.554,8.106,4.399,8.652,4.59
	c0.964,0.324,1.16,1.375,0.449,2.272C8.26,7.779,8.089,7.67,7.728,8.729c-0.297,0.87-0.243,1.566,0.24,1.566
	c0.398,0,0.481-0.265,0.47-0.78C8.427,9.001,8.735,8.521,8.921,8.291z"/>
</svg>
